<mxfile host="app.diagrams.net" modified="2023-01-25T22:59:49.851Z" agent="5.0 (Windows NT 10.0; Win64; x64) AppleWebKit/537.36 (KHTML, like Gecko) Chrome/109.0.0.0 Safari/537.36" etag="4l9MdE_TrIXNM1S95K2P" version="20.8.11" type="gitlab">
  <diagram name="Page-1" id="yql4his-IEXZLZe2QAeB">
    <mxGraphModel dx="1050" dy="583" grid="1" gridSize="10" guides="1" tooltips="1" connect="1" arrows="1" fold="1" page="1" pageScale="1" pageWidth="850" pageHeight="1100" math="0" shadow="0">
      <root>
        <mxCell id="0" />
        <mxCell id="1" parent="0" />
        <mxCell id="CD5QSCyqBDxkMnP9F72S-1" value="" style="whiteSpace=wrap;html=1;aspect=fixed;" vertex="1" parent="1">
          <mxGeometry x="230" y="120" width="370" height="370" as="geometry" />
        </mxCell>
        <mxCell id="CD5QSCyqBDxkMnP9F72S-3" value="Syren App" style="text;html=1;align=center;verticalAlign=middle;resizable=0;points=[];autosize=1;strokeColor=none;fillColor=none;" vertex="1" parent="1">
          <mxGeometry x="370" y="90" width="80" height="30" as="geometry" />
        </mxCell>
        <mxCell id="CD5QSCyqBDxkMnP9F72S-5" style="edgeStyle=elbowEdgeStyle;rounded=0;orthogonalLoop=1;jettySize=auto;html=1;elbow=vertical;entryX=0.5;entryY=0;entryDx=0;entryDy=0;entryPerimeter=0;" edge="1" parent="1" source="CD5QSCyqBDxkMnP9F72S-33" target="CD5QSCyqBDxkMnP9F72S-11">
          <mxGeometry relative="1" as="geometry">
            <mxPoint x="90" y="240" as="targetPoint" />
            <Array as="points">
              <mxPoint x="170" y="240" />
            </Array>
          </mxGeometry>
        </mxCell>
        <mxCell id="CD5QSCyqBDxkMnP9F72S-35" style="edgeStyle=elbowEdgeStyle;rounded=0;orthogonalLoop=1;jettySize=auto;elbow=vertical;html=1;" edge="1" parent="1" source="CD5QSCyqBDxkMnP9F72S-4" target="CD5QSCyqBDxkMnP9F72S-33">
          <mxGeometry relative="1" as="geometry" />
        </mxCell>
        <mxCell id="CD5QSCyqBDxkMnP9F72S-4" value="Dart code&lt;br&gt;TBD" style="whiteSpace=wrap;html=1;aspect=fixed;" vertex="1" parent="1">
          <mxGeometry x="261" y="200" width="80" height="80" as="geometry" />
        </mxCell>
        <mxCell id="CD5QSCyqBDxkMnP9F72S-9" value="" style="sketch=0;aspect=fixed;pointerEvents=1;shadow=0;dashed=0;html=1;strokeColor=none;labelPosition=center;verticalLabelPosition=bottom;verticalAlign=top;align=center;fillColor=#00188D;shape=mxgraph.mscae.enterprise.android_phone" vertex="1" parent="1">
          <mxGeometry x="130" y="373" width="30" height="50" as="geometry" />
        </mxCell>
        <mxCell id="CD5QSCyqBDxkMnP9F72S-11" value="" style="sketch=0;aspect=fixed;pointerEvents=1;shadow=0;dashed=0;html=1;strokeColor=none;labelPosition=center;verticalLabelPosition=bottom;verticalAlign=top;align=center;fillColor=#00188D;shape=mxgraph.azure.computer" vertex="1" parent="1">
          <mxGeometry x="50" y="373" width="50" height="45" as="geometry" />
        </mxCell>
        <mxCell id="CD5QSCyqBDxkMnP9F72S-12" value="" style="endArrow=classic;html=1;rounded=0;elbow=vertical;entryX=0.5;entryY=0;entryDx=0;entryDy=0;entryPerimeter=0;" edge="1" parent="1" target="CD5QSCyqBDxkMnP9F72S-9">
          <mxGeometry width="50" height="50" relative="1" as="geometry">
            <mxPoint x="145" y="240" as="sourcePoint" />
            <mxPoint x="450" y="240" as="targetPoint" />
          </mxGeometry>
        </mxCell>
        <mxCell id="CD5QSCyqBDxkMnP9F72S-23" style="edgeStyle=elbowEdgeStyle;rounded=0;orthogonalLoop=1;jettySize=auto;elbow=vertical;html=1;" edge="1" parent="1" source="CD5QSCyqBDxkMnP9F72S-18" target="CD5QSCyqBDxkMnP9F72S-22">
          <mxGeometry relative="1" as="geometry" />
        </mxCell>
        <mxCell id="CD5QSCyqBDxkMnP9F72S-31" style="edgeStyle=elbowEdgeStyle;rounded=0;orthogonalLoop=1;jettySize=auto;elbow=vertical;html=1;" edge="1" parent="1" source="CD5QSCyqBDxkMnP9F72S-18" target="CD5QSCyqBDxkMnP9F72S-4">
          <mxGeometry relative="1" as="geometry" />
        </mxCell>
        <mxCell id="CD5QSCyqBDxkMnP9F72S-18" value="" style="outlineConnect=0;dashed=0;verticalLabelPosition=bottom;verticalAlign=top;align=center;html=1;shape=mxgraph.aws3.bucket;fillColor=#E05243;gradientColor=none;" vertex="1" parent="1">
          <mxGeometry x="380" y="311.5" width="60" height="61.5" as="geometry" />
        </mxCell>
        <mxCell id="CD5QSCyqBDxkMnP9F72S-24" style="edgeStyle=elbowEdgeStyle;rounded=0;orthogonalLoop=1;jettySize=auto;elbow=vertical;html=1;" edge="1" parent="1" source="CD5QSCyqBDxkMnP9F72S-22">
          <mxGeometry relative="1" as="geometry">
            <mxPoint x="690" y="310" as="targetPoint" />
          </mxGeometry>
        </mxCell>
        <mxCell id="CD5QSCyqBDxkMnP9F72S-22" value="" style="outlineConnect=0;dashed=0;verticalLabelPosition=bottom;verticalAlign=top;align=center;html=1;shape=mxgraph.aws3.api_gateway;fillColor=#D9A741;gradientColor=none;" vertex="1" parent="1">
          <mxGeometry x="510" y="275" width="76.5" height="93" as="geometry" />
        </mxCell>
        <mxCell id="CD5QSCyqBDxkMnP9F72S-26" value="Google Maps API" style="shape=image;html=1;verticalAlign=top;verticalLabelPosition=bottom;labelBackgroundColor=#ffffff;imageAspect=0;aspect=fixed;image=https://cdn2.iconfinder.com/data/icons/google-ios-7-app-icons/120/google_maps.png" vertex="1" parent="1">
          <mxGeometry x="690" y="275" width="55" height="55" as="geometry" />
        </mxCell>
        <mxCell id="CD5QSCyqBDxkMnP9F72S-27" value="State Website" style="sketch=0;aspect=fixed;pointerEvents=1;shadow=0;dashed=0;html=1;strokeColor=none;labelPosition=center;verticalLabelPosition=bottom;verticalAlign=top;align=center;fillColor=#00188D;shape=mxgraph.azure.computer" vertex="1" parent="1">
          <mxGeometry x="690" y="370" width="50" height="45" as="geometry" />
        </mxCell>
        <mxCell id="CD5QSCyqBDxkMnP9F72S-28" value="Data.gov" style="sketch=0;aspect=fixed;pointerEvents=1;shadow=0;dashed=0;html=1;strokeColor=none;labelPosition=center;verticalLabelPosition=bottom;verticalAlign=top;align=center;fillColor=#00188D;shape=mxgraph.azure.computer" vertex="1" parent="1">
          <mxGeometry x="690" y="180" width="50" height="45" as="geometry" />
        </mxCell>
        <mxCell id="CD5QSCyqBDxkMnP9F72S-29" value="Local Website (TBD)" style="sketch=0;aspect=fixed;pointerEvents=1;shadow=0;dashed=0;html=1;strokeColor=none;labelPosition=center;verticalLabelPosition=bottom;verticalAlign=top;align=center;fillColor=#00188D;shape=mxgraph.azure.computer" vertex="1" parent="1">
          <mxGeometry x="690" y="460" width="50" height="45" as="geometry" />
        </mxCell>
        <mxCell id="CD5QSCyqBDxkMnP9F72S-30" value="" style="endArrow=classic;html=1;rounded=0;elbow=vertical;entryX=0;entryY=0.5;entryDx=0;entryDy=0;entryPerimeter=0;" edge="1" parent="1" target="CD5QSCyqBDxkMnP9F72S-28">
          <mxGeometry width="50" height="50" relative="1" as="geometry">
            <mxPoint x="650" y="310" as="sourcePoint" />
            <mxPoint x="650" y="190" as="targetPoint" />
          </mxGeometry>
        </mxCell>
        <mxCell id="CD5QSCyqBDxkMnP9F72S-33" value="Local Cache" style="aspect=fixed;html=1;points=[];align=center;image;fontSize=12;image=img/lib/azure2/general/Cache.svg;" vertex="1" parent="1">
          <mxGeometry x="120" y="211" width="64" height="64" as="geometry" />
        </mxCell>
        <mxCell id="CD5QSCyqBDxkMnP9F72S-36" value="End Devices" style="text;html=1;align=center;verticalAlign=middle;resizable=0;points=[];autosize=1;strokeColor=none;fillColor=none;" vertex="1" parent="1">
          <mxGeometry x="75" y="425" width="90" height="30" as="geometry" />
        </mxCell>
      </root>
    </mxGraphModel>
  </diagram>
</mxfile>
